<svg width="55" height="17" viewBox="0 0 55 17" fill="none" xmlns="http://www.w3.org/2000/svg">
<path d="M0.422 13V0.219999H5.102C6.17 0.219999 7.07 0.585999 7.802 1.318C8.534 2.038 8.9 2.908 8.9 3.928C8.9 4.852 8.564 5.614 7.892 6.214C9.152 6.838 9.782 7.846 9.782 9.238C9.782 10.306 9.404 11.2 8.648 11.92C7.892 12.64 6.95 13 5.822 13H0.422ZM3.032 10.606H5.642C6.134 10.606 6.524 10.474 6.812 10.21C7.1 9.934 7.244 9.58 7.244 9.148C7.244 8.716 7.1 8.362 6.812 8.086C6.524 7.81 6.134 7.672 5.642 7.672H3.032V10.606ZM3.032 5.458H4.85C5.306 5.458 5.672 5.326 5.948 5.062C6.224 4.786 6.362 4.444 6.362 4.036C6.362 3.64 6.218 3.304 5.93 3.028C5.654 2.74 5.294 2.596 4.85 2.596H3.032V5.458ZM11.8302 13V0.219999H14.4402V13H11.8302Z" fill="#29292A"/>
<path d="M19.9711 13L25.4791 0.219999H27.8011L33.3271 13H30.5911L29.3491 10.084H23.8951L22.6711 13H19.9711ZM26.6311 3.658L24.8671 7.798H28.3771L26.6311 3.658ZM36.9841 16.762H34.5181V4H36.9841V5.008C37.2121 4.684 37.5601 4.402 38.0281 4.162C38.4961 3.922 39.0181 3.802 39.5941 3.802C40.7821 3.802 41.7841 4.264 42.6001 5.188C43.4161 6.112 43.8241 7.216 43.8241 8.5C43.8241 9.784 43.4161 10.888 42.6001 11.812C41.7841 12.736 40.7821 13.198 39.5941 13.198C39.0181 13.198 38.4961 13.078 38.0281 12.838C37.5601 12.598 37.2121 12.316 36.9841 11.992V16.762ZM37.3981 10.264C37.8181 10.72 38.3701 10.948 39.0541 10.948C39.7381 10.948 40.2841 10.72 40.6921 10.264C41.1121 9.808 41.3221 9.22 41.3221 8.5C41.3221 7.78 41.1121 7.192 40.6921 6.736C40.2841 6.28 39.7381 6.052 39.0541 6.052C38.3701 6.052 37.8181 6.28 37.3981 6.736C36.9901 7.192 36.7861 7.78 36.7861 8.5C36.7861 9.22 36.9901 9.808 37.3981 10.264ZM48.0935 16.762H45.6275V4H48.0935V5.008C48.3215 4.684 48.6695 4.402 49.1375 4.162C49.6055 3.922 50.1275 3.802 50.7035 3.802C51.8915 3.802 52.8935 4.264 53.7095 5.188C54.5255 6.112 54.9335 7.216 54.9335 8.5C54.9335 9.784 54.5255 10.888 53.7095 11.812C52.8935 12.736 51.8915 13.198 50.7035 13.198C50.1275 13.198 49.6055 13.078 49.1375 12.838C48.6695 12.598 48.3215 12.316 48.0935 11.992V16.762ZM48.5075 10.264C48.9275 10.72 49.4795 10.948 50.1635 10.948C50.8475 10.948 51.3935 10.72 51.8015 10.264C52.2215 9.808 52.4315 9.22 52.4315 8.5C52.4315 7.78 52.2215 7.192 51.8015 6.736C51.3935 6.28 50.8475 6.052 50.1635 6.052C49.4795 6.052 48.9275 6.28 48.5075 6.736C48.0995 7.192 47.8955 7.78 47.8955 8.5C47.8955 9.22 48.0995 9.808 48.5075 10.264Z" fill="#EC3338"/>
</svg>
