<svg width="69" height="69" viewBox="0 0 69 69" fill="none" xmlns="http://www.w3.org/2000/svg">
<circle cx="34.5" cy="34.5" r="34.5" fill="#29292A"/>
<path d="M14.0686 40V30.06H17.4986C18.3666 30.06 19.0759 30.326 19.6266 30.858C20.1866 31.39 20.4666 32.0387 20.4666 32.804C20.4666 33.6253 20.1586 34.2647 19.5426 34.722C20.6066 35.1607 21.1386 35.9493 21.1386 37.088C21.1386 37.9187 20.8353 38.614 20.2286 39.174C19.6313 39.7247 18.8659 40 17.9326 40H14.0686ZM15.7066 38.502H17.8906C18.4133 38.502 18.8193 38.3713 19.1086 38.11C19.3979 37.8487 19.5426 37.5033 19.5426 37.074C19.5426 36.654 19.3979 36.3133 19.1086 36.052C18.8193 35.7813 18.4133 35.646 17.8906 35.646H15.7066V38.502ZM15.7066 34.246H17.4146C17.8533 34.246 18.2033 34.12 18.4646 33.868C18.7259 33.616 18.8566 33.294 18.8566 32.902C18.8566 32.5287 18.7259 32.2113 18.4646 31.95C18.2033 31.6887 17.8533 31.558 17.4146 31.558H15.7066V34.246ZM22.9006 40V30.06H24.5386V40H22.9006Z" fill="#EC3338"/>
<path d="M29.0378 40L33.2938 30.06H35.3098L39.5658 40H37.2418L36.3598 37.9H32.2438L31.3618 40H29.0378ZM34.3018 32.986L33.0418 35.968H35.5478L34.3018 32.986ZM46.4678 31.04C47.1398 31.6933 47.4758 32.5007 47.4758 33.462C47.4758 34.4233 47.1398 35.2307 46.4678 35.884C45.8051 36.528 44.9744 36.85 43.9758 36.85H42.8278V40H40.6018V30.06H43.9758C44.9744 30.06 45.8051 30.3867 46.4678 31.04ZM45.3198 33.462C45.3198 33.0887 45.1891 32.7807 44.9278 32.538C44.6758 32.286 44.3491 32.16 43.9478 32.16H42.8278V34.764H43.9478C44.3398 34.764 44.6664 34.638 44.9278 34.386C45.1891 34.134 45.3198 33.826 45.3198 33.462ZM54.7666 31.04C55.4386 31.6933 55.7746 32.5007 55.7746 33.462C55.7746 34.4233 55.4386 35.2307 54.7666 35.884C54.1039 36.528 53.2733 36.85 52.2746 36.85H51.1266V40H48.9006V30.06H52.2746C53.2733 30.06 54.1039 30.3867 54.7666 31.04ZM53.6186 33.462C53.6186 33.0887 53.4879 32.7807 53.2266 32.538C52.9746 32.286 52.6479 32.16 52.2466 32.16H51.1266V34.764H52.2466C52.6386 34.764 52.9653 34.638 53.2266 34.386C53.4879 34.134 53.6186 33.826 53.6186 33.462Z" fill="white"/>
</svg>
